<mxfile host="app.diagrams.net" modified="2022-08-19T05:22:18.254Z" agent="5.0 (Windows NT 10.0; Win64; x64) AppleWebKit/537.36 (KHTML, like Gecko) Chrome/104.0.5112.81 Safari/537.36 Edg/104.0.1293.54" etag="5OZDQmt844vL6bz0AiO-" version="20.2.4" type="github">
  <diagram name="Page-1" id="efa7a0a1-bf9b-a30e-e6df-94a7791c09e9">
    <mxGraphModel dx="1673" dy="5887" grid="1" gridSize="10" guides="1" tooltips="1" connect="1" arrows="1" fold="1" page="1" pageScale="1" pageWidth="1169" pageHeight="1654" background="none" math="0" shadow="0">
      <root>
        <mxCell id="0" />
        <mxCell id="1" parent="0" />
        <UserObject label="" tags="Classes User input" id="Nqc6m_4wT6IORtl7EpfO-247">
          <mxCell style="edgeStyle=orthogonalEdgeStyle;rounded=0;orthogonalLoop=1;jettySize=auto;html=1;labelBorderColor=none;fontSize=16;" edge="1" parent="1" source="21" target="Nqc6m_4wT6IORtl7EpfO-185">
            <mxGeometry relative="1" as="geometry" />
          </mxCell>
        </UserObject>
        <UserObject label="" tags="Methods Classes" id="Nqc6m_4wT6IORtl7EpfO-248">
          <mxCell style="edgeStyle=orthogonalEdgeStyle;rounded=0;orthogonalLoop=1;jettySize=auto;html=1;labelBorderColor=none;fontSize=16;entryX=0.5;entryY=0;entryDx=0;entryDy=0;" edge="1" parent="1" source="21" target="Nqc6m_4wT6IORtl7EpfO-205">
            <mxGeometry relative="1" as="geometry">
              <mxPoint x="940" y="-3160" as="targetPoint" />
              <Array as="points">
                <mxPoint x="885" y="-3160" />
                <mxPoint x="913" y="-3160" />
              </Array>
            </mxGeometry>
          </mxCell>
        </UserObject>
        <UserObject label="&lt;p style=&quot;margin: 4px 0px 0px; text-align: center;&quot;&gt;&lt;b&gt;Model Class&lt;/b&gt;&lt;/p&gt;&lt;hr&gt;&lt;p style=&quot;margin: 0px; margin-left: 8px;&quot;&gt;int ID&amp;nbsp;&amp;nbsp;&lt;/p&gt;&lt;p style=&quot;margin: 0px; margin-left: 8px;&quot;&gt;string Name&lt;/p&gt;&lt;p style=&quot;margin: 0px; margin-left: 8px;&quot;&gt;using NewId&lt;/p&gt;&lt;p style=&quot;margin: 0px; margin-left: 8px;&quot;&gt;string Symbol&lt;/p&gt;&lt;p style=&quot;margin: 0px; margin-left: 8px;&quot;&gt;int Period&lt;/p&gt;&lt;p style=&quot;margin: 0px; margin-left: 8px;&quot;&gt;enum Period Type&lt;/p&gt;&lt;p style=&quot;margin: 0px; margin-left: 8px;&quot;&gt;&lt;br&gt;&lt;/p&gt;&lt;p style=&quot;margin: 0px; margin-left: 8px;&quot;&gt;&lt;br&gt;&lt;/p&gt;&lt;p style=&quot;margin: 0px; margin-left: 8px;&quot;&gt;&lt;br&gt;&lt;/p&gt;&lt;p style=&quot;margin: 0px; margin-left: 8px;&quot;&gt;&lt;br&gt;&lt;/p&gt;&lt;p style=&quot;margin: 0px; margin-left: 8px;&quot;&gt;&lt;br&gt;&lt;/p&gt;&lt;p style=&quot;margin: 0px; margin-left: 8px;&quot;&gt;&lt;br&gt;&lt;/p&gt;&lt;p style=&quot;margin: 0px; margin-left: 8px;&quot;&gt;&amp;nbsp;&lt;/p&gt;" tags="Classes" id="21">
          <mxCell style="verticalAlign=top;align=left;overflow=fill;fontSize=12;fontFamily=Helvetica;html=1;strokeColor=#d6b656;shadow=1;fillColor=#fff2cc;" parent="1" vertex="1">
            <mxGeometry x="779.99" y="-3330" width="210" height="120" as="geometry" />
          </mxCell>
        </UserObject>
        <mxCell id="25" value="&lt;p style=&quot;margin: 4px 0px 0px; text-align: center;&quot;&gt;&lt;b style=&quot;&quot;&gt;MLSignalManager Outline&lt;/b&gt;&lt;/p&gt;&lt;hr&gt;&lt;p style=&quot;margin: 0px; margin-left: 8px;&quot;&gt;Library for methods and classes which&amp;nbsp;&lt;span style=&quot;background-color: initial;&quot;&gt;will be used by&lt;/span&gt;&lt;/p&gt;&lt;p style=&quot;margin: 0px; margin-left: 8px;&quot;&gt;&lt;span style=&quot;background-color: initial;&quot;&gt;Trading Platform and ML.Net apps to:&lt;/span&gt;&lt;/p&gt;&lt;p style=&quot;margin: 0px; margin-left: 8px;&quot;&gt;&lt;br&gt;&lt;/p&gt;&lt;p style=&quot;margin: 0px; margin-left: 8px;&quot;&gt;1. communicate variables between apps&lt;/p&gt;&lt;p style=&quot;margin: 0px; margin-left: 8px;&quot;&gt;2. Label Data&lt;/p&gt;&lt;p style=&quot;margin: 0px; margin-left: 8px;&quot;&gt;3. Store Data&lt;/p&gt;&lt;p style=&quot;margin: 0px; margin-left: 8px;&quot;&gt;4. Allow for mass creation of accurate labelled data&lt;/p&gt;&lt;p style=&quot;margin: 0px; margin-left: 8px;&quot;&gt;&lt;br&gt;&lt;/p&gt;&lt;p style=&quot;margin: 0px; margin-left: 8px;&quot;&gt;&lt;br&gt;&lt;/p&gt;" style="verticalAlign=top;align=left;overflow=fill;fontSize=12;fontFamily=Helvetica;html=1;strokeColor=#b85450;shadow=1;fillColor=#f8cecc;" parent="1" vertex="1">
          <mxGeometry x="2840" y="-3545" width="561" height="140" as="geometry" />
        </mxCell>
        <mxCell id="Nqc6m_4wT6IORtl7EpfO-118" value="&lt;p style=&quot;margin: 4px 0px 0px; text-align: center;&quot;&gt;&lt;strong style=&quot;&quot;&gt;Trading Platform&lt;/strong&gt;&lt;/p&gt;&lt;p style=&quot;margin: 0px; margin-left: 8px;&quot;&gt;&lt;br&gt;&lt;/p&gt;&lt;p style=&quot;margin: 0px; margin-left: 8px;&quot;&gt;1. Output - Exports Data to ML analyse&lt;/p&gt;&lt;p style=&quot;margin: 0px; margin-left: 8px;&quot;&gt;2. Input - Receives Model analysis result&amp;nbsp;&lt;span style=&quot;background-color: initial;&quot;&gt;as&amp;nbsp;&lt;/span&gt;&lt;/p&gt;&lt;p style=&quot;margin: 0px; margin-left: 8px;&quot;&gt;&lt;span style=&quot;background-color: initial;&quot;&gt;&amp;nbsp; &amp;nbsp; Positive or Negative&lt;/span&gt;&lt;/p&gt;&lt;p style=&quot;margin: 0px; margin-left: 8px;&quot;&gt;4. internal Monitors result for Positive&lt;/p&gt;&lt;p style=&quot;margin: 0px; margin-left: 8px;&quot;&gt;5. Starts Synthetic Result monitor for negative&lt;/p&gt;&lt;p style=&quot;margin: 0px; margin-left: 8px;&quot;&gt;3. Output - Sends Trade Result&lt;/p&gt;" style="verticalAlign=top;align=left;overflow=fill;fontSize=12;fontFamily=Helvetica;html=1;strokeColor=#003366;shadow=1;fillColor=#D4E1F5;fontColor=#003366" vertex="1" parent="1">
          <mxGeometry x="2900" y="-2820" width="300" height="140" as="geometry" />
        </mxCell>
        <mxCell id="Nqc6m_4wT6IORtl7EpfO-119" value="&lt;p style=&quot;margin: 4px 0px 0px; text-align: center;&quot;&gt;&lt;strong style=&quot;&quot;&gt;SQL Database&lt;/strong&gt;&lt;/p&gt;&lt;hr&gt;&lt;p style=&quot;margin: 0px; margin-left: 8px;&quot;&gt;1. Stores details of approved models&lt;/p&gt;&lt;p style=&quot;margin: 0px; margin-left: 8px;&quot;&gt;2. Stores details of each individual signal&lt;/p&gt;&lt;p style=&quot;margin: 0px; margin-left: 8px;&quot;&gt;&lt;span style=&quot;background-color: initial;&quot;&gt;&amp;nbsp;&lt;/span&gt;&lt;br&gt;&lt;/p&gt;" style="verticalAlign=top;align=left;overflow=fill;fontSize=12;fontFamily=Helvetica;html=1;strokeColor=#003366;shadow=1;fillColor=#D4E1F5;fontColor=#003366" vertex="1" parent="1">
          <mxGeometry x="2810" y="-3370" width="295" height="300" as="geometry" />
        </mxCell>
        <mxCell id="Nqc6m_4wT6IORtl7EpfO-156" style="edgeStyle=orthogonalEdgeStyle;rounded=0;orthogonalLoop=1;jettySize=auto;html=1;fontSize=16;" edge="1" parent="1" source="Nqc6m_4wT6IORtl7EpfO-123" target="Nqc6m_4wT6IORtl7EpfO-137">
          <mxGeometry relative="1" as="geometry" />
        </mxCell>
        <mxCell id="Nqc6m_4wT6IORtl7EpfO-279" style="edgeStyle=orthogonalEdgeStyle;rounded=0;orthogonalLoop=1;jettySize=auto;html=1;exitX=0.5;exitY=1;exitDx=0;exitDy=0;entryX=0.5;entryY=0;entryDx=0;entryDy=0;labelBorderColor=none;fontSize=16;" edge="1" parent="1" source="Nqc6m_4wT6IORtl7EpfO-123" target="Nqc6m_4wT6IORtl7EpfO-152">
          <mxGeometry relative="1" as="geometry">
            <Array as="points">
              <mxPoint x="885" y="-3440" />
            </Array>
          </mxGeometry>
        </mxCell>
        <UserObject label="&lt;b&gt;&lt;font style=&quot;font-size: 20px;&quot;&gt;ML&lt;/font&gt;&lt;/b&gt;" tags="StartBranch" id="Nqc6m_4wT6IORtl7EpfO-123">
          <mxCell style="ellipse;whiteSpace=wrap;html=1;fillColor=#f8cecc;strokeColor=#b85450;" vertex="1" parent="1">
            <mxGeometry x="830" y="-3550" width="120" height="110" as="geometry" />
          </mxCell>
        </UserObject>
        <mxCell id="Nqc6m_4wT6IORtl7EpfO-206" style="edgeStyle=orthogonalEdgeStyle;rounded=0;orthogonalLoop=1;jettySize=auto;html=1;entryX=0;entryY=0.5;entryDx=0;entryDy=0;labelBorderColor=none;fontSize=16;" edge="1" parent="1" source="Nqc6m_4wT6IORtl7EpfO-137" target="Nqc6m_4wT6IORtl7EpfO-152">
          <mxGeometry relative="1" as="geometry">
            <Array as="points">
              <mxPoint x="740" y="-3380" />
              <mxPoint x="740" y="-3380" />
            </Array>
          </mxGeometry>
        </mxCell>
        <mxCell id="Nqc6m_4wT6IORtl7EpfO-137" value="" style="shape=umlActor;verticalLabelPosition=bottom;verticalAlign=top;html=1;outlineConnect=0;fontSize=20;fillColor=#D4E1F5;" vertex="1" parent="1">
          <mxGeometry x="635" y="-3435" width="95" height="105" as="geometry" />
        </mxCell>
        <mxCell id="Nqc6m_4wT6IORtl7EpfO-150" value="&lt;p style=&quot;margin: 4px 0px 0px; text-align: center;&quot;&gt;&lt;strong style=&quot;&quot;&gt;copy&lt;/strong&gt;&lt;/p&gt;&lt;hr&gt;&lt;p style=&quot;margin: 0px; margin-left: 8px;&quot;&gt;Template&lt;/p&gt;" style="verticalAlign=top;align=left;overflow=fill;fontSize=12;fontFamily=Helvetica;html=1;strokeColor=#003366;shadow=1;fillColor=#D4E1F5;fontColor=#003366" vertex="1" parent="1">
          <mxGeometry x="2920" y="-3010" width="160" height="160" as="geometry" />
        </mxCell>
        <UserObject label="" tags="Classes input User" id="Nqc6m_4wT6IORtl7EpfO-233">
          <mxCell style="edgeStyle=orthogonalEdgeStyle;rounded=0;orthogonalLoop=1;jettySize=auto;html=1;entryX=0.5;entryY=0;entryDx=0;entryDy=0;labelBorderColor=none;fontSize=16;" edge="1" parent="1" source="Nqc6m_4wT6IORtl7EpfO-152" target="21">
            <mxGeometry relative="1" as="geometry" />
          </mxCell>
        </UserObject>
        <UserObject label="&lt;p style=&quot;margin: 4px 0px 0px; text-align: center;&quot;&gt;&lt;strong style=&quot;&quot;&gt;USER INPUT&lt;/strong&gt;&lt;/p&gt;&lt;hr&gt;&lt;p style=&quot;margin: 0px; margin-left: 8px;&quot;&gt;User Creates a new model&lt;/p&gt;" tags="User input" id="Nqc6m_4wT6IORtl7EpfO-152">
          <mxCell style="verticalAlign=top;align=left;overflow=fill;fontSize=12;fontFamily=Helvetica;html=1;strokeColor=#36393d;shadow=1;fillColor=#ffff88;" vertex="1" parent="1">
            <mxGeometry x="803.12" y="-3410" width="163.75" height="60" as="geometry" />
          </mxCell>
        </UserObject>
        <mxCell id="Nqc6m_4wT6IORtl7EpfO-359" style="edgeStyle=orthogonalEdgeStyle;rounded=0;orthogonalLoop=1;jettySize=auto;html=1;entryX=0.5;entryY=0;entryDx=0;entryDy=0;labelBorderColor=none;fontSize=16;strokeColor=#000000;strokeWidth=1;" edge="1" parent="1" source="Nqc6m_4wT6IORtl7EpfO-153" target="Nqc6m_4wT6IORtl7EpfO-345">
          <mxGeometry relative="1" as="geometry" />
        </mxCell>
        <UserObject label="&lt;p style=&quot;margin: 4px 0px 0px; text-align: center;&quot;&gt;&lt;b&gt;ML.Sample : Model Class&lt;/b&gt;&lt;/p&gt;&lt;hr&gt;&lt;p style=&quot;margin: 0px 0px 0px 8px;&quot;&gt;&lt;i&gt;&lt;b&gt;&lt;u&gt;Inherited FROM MODEL&lt;/u&gt;&lt;/b&gt;&lt;/i&gt;&lt;i&gt;&lt;br&gt;&lt;/i&gt;&lt;/p&gt;&lt;p style=&quot;margin: 0px 0px 0px 8px;&quot;&gt;&lt;i&gt;&lt;b&gt;GET from Model.ID&lt;/b&gt;&lt;/i&gt;&lt;/p&gt;&lt;p style=&quot;margin: 0px 0px 0px 8px;&quot;&gt;&lt;i&gt;int ML.Model.ID&amp;nbsp;&amp;nbsp;&lt;/i&gt;&lt;/p&gt;&lt;p style=&quot;margin: 0px 0px 0px 8px;&quot;&gt;&lt;i&gt;string Name&lt;/i&gt;&lt;/p&gt;&lt;p style=&quot;margin: 0px 0px 0px 8px;&quot;&gt;&lt;i&gt;using NewId&lt;/i&gt;&lt;/p&gt;&lt;p style=&quot;margin: 0px 0px 0px 8px;&quot;&gt;&lt;i&gt;string Symbol&lt;/i&gt;&lt;/p&gt;&lt;p style=&quot;margin: 0px 0px 0px 8px;&quot;&gt;&lt;i&gt;int Period&lt;/i&gt;&lt;/p&gt;&lt;p style=&quot;margin: 0px 0px 0px 8px;&quot;&gt;&lt;i&gt;enum Period Type&lt;/i&gt;&lt;/p&gt;&lt;p style=&quot;margin: 0px 0px 0px 8px;&quot;&gt;&lt;br&gt;&lt;/p&gt;&lt;p style=&quot;margin: 0px 0px 0px 8px;&quot;&gt;&lt;u&gt;New Variables by Sample Class&lt;/u&gt;&lt;/p&gt;&lt;p style=&quot;margin: 0px 0px 0px 8px;&quot;&gt;bool SignalFound&lt;/p&gt;&lt;p style=&quot;margin: 0px 0px 0px 8px;&quot;&gt;&lt;span style=&quot;background-color: initial;&quot;&gt;int UniqueID;&lt;/span&gt;&lt;br&gt;&lt;/p&gt;&lt;p style=&quot;margin: 0px 0px 0px 8px;&quot;&gt;&lt;span style=&quot;background-color: initial;&quot;&gt;New Result Object&lt;/span&gt;&lt;br&gt;&lt;/p&gt;" tags="Classes Inheritance" id="Nqc6m_4wT6IORtl7EpfO-153">
          <mxCell style="verticalAlign=top;align=left;overflow=fill;fontSize=12;fontFamily=Helvetica;html=1;strokeColor=#d6b656;shadow=1;fillColor=#fff2cc;" vertex="1" parent="1">
            <mxGeometry x="1519.06" y="-3420" width="261.88" height="270" as="geometry" />
          </mxCell>
        </UserObject>
        <mxCell id="Nqc6m_4wT6IORtl7EpfO-253" style="edgeStyle=orthogonalEdgeStyle;rounded=0;orthogonalLoop=1;jettySize=auto;html=1;entryX=0.5;entryY=0;entryDx=0;entryDy=0;labelBorderColor=none;fontSize=16;" edge="1" parent="1" source="Nqc6m_4wT6IORtl7EpfO-173" target="Nqc6m_4wT6IORtl7EpfO-249">
          <mxGeometry relative="1" as="geometry" />
        </mxCell>
        <UserObject label="int &lt;br&gt;Model.ID" tags="Variables" id="Nqc6m_4wT6IORtl7EpfO-173">
          <mxCell style="ellipse;shape=doubleEllipse;whiteSpace=wrap;html=1;fontSize=16;fillColor=#e1d5e7;strokeColor=#9673a6;" vertex="1" parent="1">
            <mxGeometry x="863.12" y="-3030" width="100" height="60" as="geometry" />
          </mxCell>
        </UserObject>
        <mxCell id="Nqc6m_4wT6IORtl7EpfO-332" style="edgeStyle=orthogonalEdgeStyle;rounded=0;orthogonalLoop=1;jettySize=auto;html=1;labelBorderColor=none;fontSize=16;entryX=0;entryY=0.5;entryDx=0;entryDy=0;" edge="1" parent="1" source="Nqc6m_4wT6IORtl7EpfO-175" target="Nqc6m_4wT6IORtl7EpfO-249">
          <mxGeometry relative="1" as="geometry">
            <mxPoint x="769.9999999999995" y="-2860" as="targetPoint" />
          </mxGeometry>
        </mxCell>
        <UserObject label="string Symbol" tags="Variables" id="Nqc6m_4wT6IORtl7EpfO-175">
          <mxCell style="ellipse;shape=doubleEllipse;whiteSpace=wrap;html=1;fontSize=16;fillColor=#e1d5e7;strokeColor=#9673a6;" vertex="1" parent="1">
            <mxGeometry x="550" y="-2890" width="100" height="60" as="geometry" />
          </mxCell>
        </UserObject>
        <mxCell id="Nqc6m_4wT6IORtl7EpfO-331" style="edgeStyle=orthogonalEdgeStyle;rounded=0;orthogonalLoop=1;jettySize=auto;html=1;labelBorderColor=none;fontSize=16;entryX=0;entryY=0.5;entryDx=0;entryDy=0;" edge="1" parent="1" source="Nqc6m_4wT6IORtl7EpfO-177" target="Nqc6m_4wT6IORtl7EpfO-249">
          <mxGeometry relative="1" as="geometry">
            <mxPoint x="769.9999999999995" y="-2930" as="targetPoint" />
          </mxGeometry>
        </mxCell>
        <UserObject label="int&amp;nbsp;&lt;br&gt;Period" tags="Variables" id="Nqc6m_4wT6IORtl7EpfO-177">
          <mxCell style="ellipse;shape=doubleEllipse;whiteSpace=wrap;html=1;fontSize=16;fillColor=#e1d5e7;strokeColor=#9673a6;" vertex="1" parent="1">
            <mxGeometry x="550" y="-2960" width="100" height="60" as="geometry" />
          </mxCell>
        </UserObject>
        <mxCell id="Nqc6m_4wT6IORtl7EpfO-311" style="edgeStyle=orthogonalEdgeStyle;rounded=0;orthogonalLoop=1;jettySize=auto;html=1;labelBorderColor=none;fontSize=16;entryX=0;entryY=0.5;entryDx=0;entryDy=0;" edge="1" parent="1" source="Nqc6m_4wT6IORtl7EpfO-185" target="Nqc6m_4wT6IORtl7EpfO-193">
          <mxGeometry relative="1" as="geometry">
            <mxPoint x="490" y="-3000" as="targetPoint" />
            <Array as="points">
              <mxPoint x="530" y="-3080" />
              <mxPoint x="530" y="-3000" />
            </Array>
          </mxGeometry>
        </mxCell>
        <mxCell id="Nqc6m_4wT6IORtl7EpfO-312" style="edgeStyle=orthogonalEdgeStyle;rounded=0;orthogonalLoop=1;jettySize=auto;html=1;entryX=0;entryY=0.5;entryDx=0;entryDy=0;labelBorderColor=none;fontSize=16;" edge="1" parent="1" source="Nqc6m_4wT6IORtl7EpfO-185" target="Nqc6m_4wT6IORtl7EpfO-177">
          <mxGeometry relative="1" as="geometry">
            <Array as="points">
              <mxPoint x="530" y="-3080" />
              <mxPoint x="530" y="-2930" />
            </Array>
          </mxGeometry>
        </mxCell>
        <mxCell id="Nqc6m_4wT6IORtl7EpfO-313" style="edgeStyle=orthogonalEdgeStyle;rounded=0;orthogonalLoop=1;jettySize=auto;html=1;entryX=0;entryY=0.5;entryDx=0;entryDy=0;labelBorderColor=none;fontSize=16;" edge="1" parent="1" source="Nqc6m_4wT6IORtl7EpfO-185" target="Nqc6m_4wT6IORtl7EpfO-175">
          <mxGeometry relative="1" as="geometry">
            <Array as="points">
              <mxPoint x="530" y="-3080" />
              <mxPoint x="530" y="-2860" />
            </Array>
          </mxGeometry>
        </mxCell>
        <mxCell id="Nqc6m_4wT6IORtl7EpfO-314" style="edgeStyle=orthogonalEdgeStyle;rounded=0;orthogonalLoop=1;jettySize=auto;html=1;entryX=0;entryY=0.5;entryDx=0;entryDy=0;labelBorderColor=none;fontSize=16;" edge="1" parent="1" source="Nqc6m_4wT6IORtl7EpfO-185" target="Nqc6m_4wT6IORtl7EpfO-188">
          <mxGeometry relative="1" as="geometry">
            <Array as="points">
              <mxPoint x="530" y="-3080" />
              <mxPoint x="530" y="-2790" />
            </Array>
          </mxGeometry>
        </mxCell>
        <mxCell id="Nqc6m_4wT6IORtl7EpfO-318" style="edgeStyle=orthogonalEdgeStyle;rounded=0;orthogonalLoop=1;jettySize=auto;html=1;entryX=0;entryY=0.5;entryDx=0;entryDy=0;labelBorderColor=none;fontSize=16;" edge="1" parent="1" source="Nqc6m_4wT6IORtl7EpfO-185" target="Nqc6m_4wT6IORtl7EpfO-309">
          <mxGeometry relative="1" as="geometry">
            <Array as="points">
              <mxPoint x="530" y="-3080" />
              <mxPoint x="530" y="-2716" />
            </Array>
          </mxGeometry>
        </mxCell>
        <UserObject label="&lt;p style=&quot;margin: 4px 0px 0px; text-align: center;&quot;&gt;&lt;b&gt;User inputs via&lt;/b&gt;&lt;/p&gt;&lt;p style=&quot;margin: 4px 0px 0px; text-align: center;&quot;&gt;&lt;b&gt;UI or CMD&lt;/b&gt;&lt;/p&gt;&lt;p style=&quot;margin: 4px 0px 0px; text-align: center;&quot;&gt;&lt;b&gt;&lt;br&gt;&lt;/b&gt;&lt;/p&gt;&lt;hr&gt;&lt;p style=&quot;margin: 0px; margin-left: 8px;&quot;&gt;&lt;br&gt;&lt;/p&gt;" tags="User" id="Nqc6m_4wT6IORtl7EpfO-185">
          <mxCell style="verticalAlign=top;align=left;overflow=fill;fontSize=12;fontFamily=Helvetica;html=1;strokeColor=#36393d;shadow=1;fillColor=#ffff88;" vertex="1" parent="1">
            <mxGeometry x="572.5" y="-3110" width="220" height="60" as="geometry" />
          </mxCell>
        </UserObject>
        <mxCell id="Nqc6m_4wT6IORtl7EpfO-333" style="edgeStyle=orthogonalEdgeStyle;rounded=0;orthogonalLoop=1;jettySize=auto;html=1;labelBorderColor=none;fontSize=16;entryX=0;entryY=0.5;entryDx=0;entryDy=0;" edge="1" parent="1" source="Nqc6m_4wT6IORtl7EpfO-188" target="Nqc6m_4wT6IORtl7EpfO-249">
          <mxGeometry relative="1" as="geometry">
            <mxPoint x="770" y="-2790" as="targetPoint" />
          </mxGeometry>
        </mxCell>
        <UserObject label="enum &lt;br&gt;PeriodType" tags="Enums" id="Nqc6m_4wT6IORtl7EpfO-188">
          <mxCell style="rounded=1;whiteSpace=wrap;html=1;fontSize=16;fillColor=#D4E1F5;" vertex="1" parent="1">
            <mxGeometry x="550" y="-2820" width="100" height="60" as="geometry" />
          </mxCell>
        </UserObject>
        <mxCell id="Nqc6m_4wT6IORtl7EpfO-330" style="edgeStyle=orthogonalEdgeStyle;rounded=0;orthogonalLoop=1;jettySize=auto;html=1;labelBorderColor=none;fontSize=16;entryX=0;entryY=0.5;entryDx=0;entryDy=0;" edge="1" parent="1" source="Nqc6m_4wT6IORtl7EpfO-193" target="Nqc6m_4wT6IORtl7EpfO-249">
          <mxGeometry relative="1" as="geometry">
            <mxPoint x="769.9999999999995" y="-3000" as="targetPoint" />
          </mxGeometry>
        </mxCell>
        <UserObject label="string&lt;br&gt;Name" tags="Variables" id="Nqc6m_4wT6IORtl7EpfO-193">
          <mxCell style="ellipse;shape=doubleEllipse;whiteSpace=wrap;html=1;fontSize=16;fillColor=#e1d5e7;strokeColor=#9673a6;" vertex="1" parent="1">
            <mxGeometry x="550" y="-3030" width="100" height="60" as="geometry" />
          </mxCell>
        </UserObject>
        <UserObject label="" tags="Methods Variables" id="Nqc6m_4wT6IORtl7EpfO-225">
          <mxCell style="edgeStyle=orthogonalEdgeStyle;rounded=0;orthogonalLoop=1;jettySize=auto;html=1;labelBorderColor=none;fontSize=16;" edge="1" parent="1" source="Nqc6m_4wT6IORtl7EpfO-205" target="Nqc6m_4wT6IORtl7EpfO-173">
            <mxGeometry relative="1" as="geometry">
              <Array as="points">
                <mxPoint x="880" y="-2990" />
                <mxPoint x="880" y="-2990" />
              </Array>
            </mxGeometry>
          </mxCell>
        </UserObject>
        <UserObject label="&lt;p style=&quot;margin: 4px 0px 0px; text-align: center;&quot;&gt;&lt;b&gt;ML.NewModel() Method&lt;/b&gt;&lt;/p&gt;&lt;hr&gt;&lt;p style=&quot;margin: 0px; margin-left: 8px;&quot;&gt;Create new ID using NewId package&lt;/p&gt;" tags="Methods" id="Nqc6m_4wT6IORtl7EpfO-205">
          <mxCell style="verticalAlign=top;align=left;overflow=fill;fontSize=12;fontFamily=Helvetica;html=1;strokeColor=#0e8088;shadow=1;fillColor=#b0e3e6;" vertex="1" parent="1">
            <mxGeometry x="803.12" y="-3110" width="220" height="60" as="geometry" />
          </mxCell>
        </UserObject>
        <UserObject label="" tags="Objects List" id="Nqc6m_4wT6IORtl7EpfO-258">
          <mxCell style="edgeStyle=orthogonalEdgeStyle;rounded=0;orthogonalLoop=1;jettySize=auto;html=1;entryX=0.5;entryY=0;entryDx=0;entryDy=0;labelBorderColor=none;fontSize=16;" edge="1" parent="1" source="Nqc6m_4wT6IORtl7EpfO-239" target="Nqc6m_4wT6IORtl7EpfO-254">
            <mxGeometry relative="1" as="geometry" />
          </mxCell>
        </UserObject>
        <UserObject label="&lt;p style=&quot;margin: 4px 0px 0px; text-align: center;&quot;&gt;&lt;b&gt;&quot;ExampleModel&quot; Object: Model&lt;/b&gt;&lt;/p&gt;&lt;hr&gt;&lt;p style=&quot;margin: 0px; margin-left: 8px;&quot;&gt;inherits some values from existing model&lt;/p&gt;" tags="Objects StartBranch" id="Nqc6m_4wT6IORtl7EpfO-239">
          <mxCell style="verticalAlign=top;align=left;overflow=fill;fontSize=12;fontFamily=Helvetica;html=1;strokeColor=#36393d;shadow=1;fillColor=#cdeb8b;" vertex="1" parent="1">
            <mxGeometry x="1120" y="-3400" width="230" height="110" as="geometry" />
          </mxCell>
        </UserObject>
        <UserObject label="" tags="Objects" id="Nqc6m_4wT6IORtl7EpfO-252">
          <mxCell style="edgeStyle=orthogonalEdgeStyle;rounded=0;orthogonalLoop=1;jettySize=auto;html=1;entryX=0.5;entryY=0;entryDx=0;entryDy=0;labelBorderColor=none;fontSize=16;fillColor=#cdeb8b;strokeColor=#33FF33;strokeWidth=2;fontStyle=1" edge="1" parent="1" source="Nqc6m_4wT6IORtl7EpfO-249" target="Nqc6m_4wT6IORtl7EpfO-239">
            <mxGeometry relative="1" as="geometry">
              <Array as="points">
                <mxPoint x="1050" y="-2910" />
                <mxPoint x="1050" y="-3420" />
                <mxPoint x="1235" y="-3420" />
              </Array>
            </mxGeometry>
          </mxCell>
        </UserObject>
        <UserObject label="&lt;b&gt;END&amp;nbsp;&lt;/b&gt;" tags="EndBranch" id="Nqc6m_4wT6IORtl7EpfO-249">
          <mxCell style="ellipse;whiteSpace=wrap;html=1;aspect=fixed;fontSize=16;fillColor=#ffcccc;strokeColor=#36393d;" vertex="1" parent="1">
            <mxGeometry x="863.12" y="-2950" width="100" height="100" as="geometry" />
          </mxCell>
        </UserObject>
        <mxCell id="Nqc6m_4wT6IORtl7EpfO-299" style="edgeStyle=orthogonalEdgeStyle;rounded=0;orthogonalLoop=1;jettySize=auto;html=1;entryX=0.5;entryY=0;entryDx=0;entryDy=0;labelBorderColor=none;fontSize=16;" edge="1" parent="1" source="Nqc6m_4wT6IORtl7EpfO-254" target="Nqc6m_4wT6IORtl7EpfO-259">
          <mxGeometry relative="1" as="geometry" />
        </mxCell>
        <UserObject label="Models&lt;Model&gt;" tags="List Objects" id="Nqc6m_4wT6IORtl7EpfO-254">
          <mxCell style="swimlane;fontStyle=0;childLayout=stackLayout;horizontal=1;startSize=30;horizontalStack=0;resizeParent=1;resizeParentMax=0;resizeLast=0;collapsible=1;marginBottom=0;fontSize=16;fillColor=#D4E1F5;" vertex="1" parent="1">
            <mxGeometry x="1120" y="-3240" width="230" height="70" as="geometry" />
          </mxCell>
        </UserObject>
        <mxCell id="Nqc6m_4wT6IORtl7EpfO-256" value="Stores a list of all models &#xa;Loads from SQL Writes to SQL" style="text;strokeColor=none;fillColor=none;align=center;verticalAlign=middle;spacingLeft=4;spacingRight=4;overflow=hidden;points=[[0,0.5],[1,0.5]];portConstraint=eastwest;rotatable=0;fontSize=16;" vertex="1" parent="Nqc6m_4wT6IORtl7EpfO-254">
          <mxGeometry y="30" width="230" height="40" as="geometry" />
        </mxCell>
        <mxCell id="Nqc6m_4wT6IORtl7EpfO-301" style="edgeStyle=orthogonalEdgeStyle;rounded=0;orthogonalLoop=1;jettySize=auto;html=1;labelBorderColor=none;fontSize=16;" edge="1" parent="1" source="Nqc6m_4wT6IORtl7EpfO-259" target="Nqc6m_4wT6IORtl7EpfO-254">
          <mxGeometry relative="1" as="geometry" />
        </mxCell>
        <UserObject label="SQL Database Serialises List of models Loads&amp;nbsp;" tags="SQL EndBranch" id="Nqc6m_4wT6IORtl7EpfO-259">
          <mxCell style="shape=datastore;whiteSpace=wrap;html=1;fontSize=16;fillColor=#D4E1F5;" vertex="1" parent="1">
            <mxGeometry x="1115" y="-3120" width="240" height="160" as="geometry" />
          </mxCell>
        </UserObject>
        <mxCell id="Nqc6m_4wT6IORtl7EpfO-347" style="edgeStyle=orthogonalEdgeStyle;rounded=0;orthogonalLoop=1;jettySize=auto;html=1;entryX=0.5;entryY=0;entryDx=0;entryDy=0;labelBorderColor=none;fontSize=16;" edge="1" parent="1" source="Nqc6m_4wT6IORtl7EpfO-263" target="Nqc6m_4wT6IORtl7EpfO-153">
          <mxGeometry relative="1" as="geometry" />
        </mxCell>
        <UserObject label="&lt;b&gt;&lt;font style=&quot;font-size: 20px;&quot;&gt;Unlabelled Sample&lt;br&gt;found&lt;br&gt;&lt;/font&gt;&lt;/b&gt;" tags="EndBranch" id="Nqc6m_4wT6IORtl7EpfO-263">
          <mxCell style="ellipse;whiteSpace=wrap;html=1;fillColor=#f8cecc;strokeColor=#b85450;" vertex="1" parent="1">
            <mxGeometry x="1580.62" y="-3545" width="138.75" height="100" as="geometry" />
          </mxCell>
        </UserObject>
        <mxCell id="Nqc6m_4wT6IORtl7EpfO-297" style="edgeStyle=orthogonalEdgeStyle;rounded=0;orthogonalLoop=1;jettySize=auto;html=1;entryX=0;entryY=0.5;entryDx=0;entryDy=0;labelBorderColor=none;fontSize=16;" edge="1" parent="1" source="Nqc6m_4wT6IORtl7EpfO-266" target="Nqc6m_4wT6IORtl7EpfO-256">
          <mxGeometry relative="1" as="geometry">
            <Array as="points">
              <mxPoint x="1090" y="-2883" />
              <mxPoint x="1090" y="-3190" />
            </Array>
          </mxGeometry>
        </mxCell>
        <mxCell id="Nqc6m_4wT6IORtl7EpfO-303" style="edgeStyle=orthogonalEdgeStyle;rounded=0;orthogonalLoop=1;jettySize=auto;html=1;labelBorderColor=none;fontSize=16;" edge="1" parent="1" source="Nqc6m_4wT6IORtl7EpfO-266" target="Nqc6m_4wT6IORtl7EpfO-284">
          <mxGeometry relative="1" as="geometry" />
        </mxCell>
        <UserObject label="&lt;p style=&quot;margin: 4px 0px 0px; text-align: center;&quot;&gt;&lt;b&gt;WatchingSampleLocations() Method&lt;/b&gt;&lt;/p&gt;&lt;hr&gt;&lt;p style=&quot;margin: 0px; margin-left: 8px;&quot;&gt;For Each Model in Models&lt;/p&gt;&lt;p style=&quot;margin: 0px; margin-left: 8px;&quot;&gt;Check for unlabelled sample object in&amp;nbsp;&lt;/p&gt;&lt;p style=&quot;margin: 0px; margin-left: 8px;&quot;&gt;Model.UnlabelledFolder&lt;/p&gt;" tags="Methods" id="Nqc6m_4wT6IORtl7EpfO-266">
          <mxCell style="verticalAlign=top;align=left;overflow=fill;fontSize=12;fontFamily=Helvetica;html=1;strokeColor=#0e8088;shadow=1;fillColor=#b0e3e6;" vertex="1" parent="1">
            <mxGeometry x="1125" y="-2935" width="215" height="105" as="geometry" />
          </mxCell>
        </UserObject>
        <mxCell id="Nqc6m_4wT6IORtl7EpfO-323" style="edgeStyle=orthogonalEdgeStyle;rounded=0;orthogonalLoop=1;jettySize=auto;html=1;entryX=0.5;entryY=1;entryDx=0;entryDy=0;labelBorderColor=none;fontSize=16;" edge="1" parent="1" source="Nqc6m_4wT6IORtl7EpfO-267" target="Nqc6m_4wT6IORtl7EpfO-249">
          <mxGeometry relative="1" as="geometry">
            <Array as="points">
              <mxPoint x="913" y="-2716" />
            </Array>
          </mxGeometry>
        </mxCell>
        <UserObject label="string (location)&lt;br&gt;UnlabledFolder" tags="Variables" id="Nqc6m_4wT6IORtl7EpfO-267">
          <mxCell style="ellipse;shape=doubleEllipse;whiteSpace=wrap;html=1;fontSize=16;fillColor=#e1d5e7;strokeColor=#9673a6;" vertex="1" parent="1">
            <mxGeometry x="838.12" y="-2746.25" width="150" height="60" as="geometry" />
          </mxCell>
        </UserObject>
        <mxCell id="Nqc6m_4wT6IORtl7EpfO-352" style="edgeStyle=orthogonalEdgeStyle;rounded=0;orthogonalLoop=1;jettySize=auto;html=1;entryX=0.5;entryY=0;entryDx=0;entryDy=0;labelBorderColor=none;fontSize=16;" edge="1" parent="1" source="Nqc6m_4wT6IORtl7EpfO-284" target="Nqc6m_4wT6IORtl7EpfO-351">
          <mxGeometry relative="1" as="geometry" />
        </mxCell>
        <UserObject label="&lt;p style=&quot;margin: 4px 0px 0px; text-align: center;&quot;&gt;&lt;b&gt;FoundNewSample(ML.Model.ID, Location) Method&lt;/b&gt;&lt;/p&gt;&lt;p style=&quot;margin: 0px; margin-left: 8px;&quot;&gt;&lt;br&gt;&lt;/p&gt;&lt;p style=&quot;margin: 0px; margin-left: 8px;&quot;&gt;Create ML.Sample Object from Class&lt;/p&gt;" tags="Methods" id="Nqc6m_4wT6IORtl7EpfO-284">
          <mxCell style="verticalAlign=top;align=left;overflow=fill;fontSize=12;fontFamily=Helvetica;html=1;strokeColor=#0e8088;shadow=1;fillColor=#b0e3e6;" vertex="1" parent="1">
            <mxGeometry x="1086.25" y="-2810" width="292.5" height="60" as="geometry" />
          </mxCell>
        </UserObject>
        <UserObject label="" tags="Methods" id="Nqc6m_4wT6IORtl7EpfO-319">
          <mxCell style="edgeStyle=orthogonalEdgeStyle;rounded=0;orthogonalLoop=1;jettySize=auto;html=1;entryX=0;entryY=0.5;entryDx=0;entryDy=0;labelBorderColor=none;fontSize=16;" edge="1" parent="1" source="Nqc6m_4wT6IORtl7EpfO-309" target="Nqc6m_4wT6IORtl7EpfO-267">
            <mxGeometry relative="1" as="geometry" />
          </mxCell>
        </UserObject>
        <UserObject label="&lt;p style=&quot;margin: 4px 0px 0px; text-align: center;&quot;&gt;&lt;b&gt;CreateNewLocation()&lt;/b&gt;&lt;/p&gt;&lt;hr&gt;&lt;p style=&quot;margin: 0px; margin-left: 8px;&quot;&gt;Create new folder&amp;nbsp;&lt;/p&gt;&lt;p style=&quot;margin: 0px; margin-left: 8px;&quot;&gt;Structure for new model&lt;/p&gt;" tags="Methods" id="Nqc6m_4wT6IORtl7EpfO-309">
          <mxCell style="verticalAlign=top;align=left;overflow=fill;fontSize=12;fontFamily=Helvetica;html=1;strokeColor=#0e8088;shadow=1;fillColor=#b0e3e6;" vertex="1" parent="1">
            <mxGeometry x="573.12" y="-2750" width="156.88" height="67.5" as="geometry" />
          </mxCell>
        </UserObject>
        <mxCell id="Nqc6m_4wT6IORtl7EpfO-378" style="edgeStyle=orthogonalEdgeStyle;rounded=0;orthogonalLoop=1;jettySize=auto;html=1;exitX=0.5;exitY=1;exitDx=0;exitDy=0;entryX=0.5;entryY=0;entryDx=0;entryDy=0;labelBorderColor=none;fontSize=16;strokeColor=#000000;strokeWidth=1;" edge="1" parent="1" source="Nqc6m_4wT6IORtl7EpfO-337" target="Nqc6m_4wT6IORtl7EpfO-377">
          <mxGeometry relative="1" as="geometry" />
        </mxCell>
        <UserObject label="&lt;p style=&quot;margin: 4px 0px 0px; text-align: center;&quot;&gt;&lt;b&gt;AnalyseDiscoveredSample(ML.Model.ID,ML.Sample.ID, Location) Method&lt;/b&gt;&lt;/p&gt;&lt;p style=&quot;margin: 0px; margin-left: 8px;&quot;&gt;&lt;br&gt;&lt;/p&gt;&lt;p style=&quot;margin: 0px; margin-left: 8px;&quot;&gt;Runs Analysis of new Sample Object using the specified model&lt;/p&gt;" tags="Methods" id="Nqc6m_4wT6IORtl7EpfO-337">
          <mxCell style="verticalAlign=top;align=left;overflow=fill;fontSize=12;fontFamily=Helvetica;html=1;strokeColor=#0e8088;shadow=1;fillColor=#b0e3e6;" vertex="1" parent="1">
            <mxGeometry x="1455" y="-2770" width="430" height="60" as="geometry" />
          </mxCell>
        </UserObject>
        <mxCell id="Nqc6m_4wT6IORtl7EpfO-375" style="edgeStyle=orthogonalEdgeStyle;rounded=0;orthogonalLoop=1;jettySize=auto;html=1;exitX=0.5;exitY=1;exitDx=0;exitDy=0;labelBorderColor=none;fontSize=16;strokeColor=#000000;strokeWidth=1;" edge="1" parent="1" source="Nqc6m_4wT6IORtl7EpfO-339" target="Nqc6m_4wT6IORtl7EpfO-337">
          <mxGeometry relative="1" as="geometry" />
        </mxCell>
        <UserObject label="&lt;p style=&quot;margin: 4px 0px 0px; text-align: center;&quot;&gt;&lt;b&gt;&quot;ExampleSample&quot; Object: ML.Sample : Model&lt;/b&gt;&lt;/p&gt;&lt;hr&gt;&lt;p style=&quot;margin: 0px 0px 0px 8px;&quot;&gt;&lt;b&gt;&lt;i&gt;New Unique Sample object&lt;/i&gt;&lt;/b&gt;&lt;/p&gt;" tags="Classes Inheritance" id="Nqc6m_4wT6IORtl7EpfO-339">
          <mxCell style="verticalAlign=top;align=left;overflow=fill;fontSize=12;fontFamily=Helvetica;html=1;strokeColor=#36393d;shadow=1;fillColor=#cdeb8b;" vertex="1" parent="1">
            <mxGeometry x="1519.06" y="-2870" width="300" height="80" as="geometry" />
          </mxCell>
        </UserObject>
        <mxCell id="Nqc6m_4wT6IORtl7EpfO-385" style="edgeStyle=orthogonalEdgeStyle;rounded=0;orthogonalLoop=1;jettySize=auto;html=1;exitX=0.5;exitY=1;exitDx=0;exitDy=0;labelBorderColor=none;fontSize=16;strokeColor=#000000;strokeWidth=1;" edge="1" parent="1" source="Nqc6m_4wT6IORtl7EpfO-341" target="Nqc6m_4wT6IORtl7EpfO-339">
          <mxGeometry relative="1" as="geometry" />
        </mxCell>
        <UserObject label="bool&lt;br&gt;SignalFound = false" tags="Variables" id="Nqc6m_4wT6IORtl7EpfO-341">
          <mxCell style="ellipse;shape=doubleEllipse;whiteSpace=wrap;html=1;fontSize=16;fillColor=#e1d5e7;strokeColor=#9673a6;" vertex="1" parent="1">
            <mxGeometry x="1770" y="-2980.5" width="120" height="71" as="geometry" />
          </mxCell>
        </UserObject>
        <mxCell id="Nqc6m_4wT6IORtl7EpfO-342" style="edgeStyle=orthogonalEdgeStyle;rounded=0;orthogonalLoop=1;jettySize=auto;html=1;entryX=1;entryY=0.5;entryDx=0;entryDy=0;labelBorderColor=none;fontSize=16;" edge="1" parent="1" source="Nqc6m_4wT6IORtl7EpfO-256" target="Nqc6m_4wT6IORtl7EpfO-266">
          <mxGeometry relative="1" as="geometry">
            <Array as="points">
              <mxPoint x="1380" y="-3190" />
              <mxPoint x="1380" y="-2883" />
            </Array>
          </mxGeometry>
        </mxCell>
        <mxCell id="Nqc6m_4wT6IORtl7EpfO-343" value="" style="endArrow=none;dashed=1;html=1;dashPattern=1 3;strokeWidth=2;rounded=0;labelBorderColor=none;fontSize=16;exitX=1;exitY=0.5;exitDx=0;exitDy=0;entryX=0;entryY=0.5;entryDx=0;entryDy=0;" edge="1" parent="1" source="Nqc6m_4wT6IORtl7EpfO-267" target="Nqc6m_4wT6IORtl7EpfO-284">
          <mxGeometry width="50" height="50" relative="1" as="geometry">
            <mxPoint x="1036.25" y="-2730" as="sourcePoint" />
            <mxPoint x="1080" y="-2780" as="targetPoint" />
            <Array as="points">
              <mxPoint x="1040" y="-2716" />
              <mxPoint x="1040" y="-2780" />
            </Array>
          </mxGeometry>
        </mxCell>
        <mxCell id="Nqc6m_4wT6IORtl7EpfO-344" value="" style="endArrow=none;dashed=1;html=1;dashPattern=1 3;strokeWidth=2;rounded=0;labelBorderColor=none;fontSize=16;exitX=1;exitY=0.5;exitDx=0;exitDy=0;entryX=0;entryY=0.5;entryDx=0;entryDy=0;" edge="1" parent="1" source="Nqc6m_4wT6IORtl7EpfO-173" target="Nqc6m_4wT6IORtl7EpfO-284">
          <mxGeometry width="50" height="50" relative="1" as="geometry">
            <mxPoint x="989.99" y="-3000" as="sourcePoint" />
            <mxPoint x="1060" y="-3000" as="targetPoint" />
            <Array as="points">
              <mxPoint x="1000" y="-3000" />
              <mxPoint x="1000" y="-2880" />
              <mxPoint x="1000" y="-2780" />
            </Array>
          </mxGeometry>
        </mxCell>
        <mxCell id="Nqc6m_4wT6IORtl7EpfO-367" style="edgeStyle=orthogonalEdgeStyle;rounded=0;orthogonalLoop=1;jettySize=auto;html=1;exitX=0.25;exitY=1;exitDx=0;exitDy=0;labelBorderColor=none;fontSize=16;strokeColor=#000000;strokeWidth=1;" edge="1" parent="1" source="Nqc6m_4wT6IORtl7EpfO-345" target="Nqc6m_4wT6IORtl7EpfO-356">
          <mxGeometry relative="1" as="geometry" />
        </mxCell>
        <mxCell id="Nqc6m_4wT6IORtl7EpfO-369" style="edgeStyle=orthogonalEdgeStyle;rounded=0;orthogonalLoop=1;jettySize=auto;html=1;exitX=0.75;exitY=1;exitDx=0;exitDy=0;entryX=0.5;entryY=0;entryDx=0;entryDy=0;labelBorderColor=none;fontSize=16;strokeColor=#000000;strokeWidth=1;" edge="1" parent="1" source="Nqc6m_4wT6IORtl7EpfO-345" target="Nqc6m_4wT6IORtl7EpfO-358">
          <mxGeometry relative="1" as="geometry">
            <Array as="points">
              <mxPoint x="1669" y="-3020" />
            </Array>
          </mxGeometry>
        </mxCell>
        <mxCell id="Nqc6m_4wT6IORtl7EpfO-384" style="edgeStyle=orthogonalEdgeStyle;rounded=0;orthogonalLoop=1;jettySize=auto;html=1;exitX=0.75;exitY=1;exitDx=0;exitDy=0;labelBorderColor=none;fontSize=16;strokeColor=#000000;strokeWidth=1;" edge="1" parent="1" source="Nqc6m_4wT6IORtl7EpfO-345" target="Nqc6m_4wT6IORtl7EpfO-341">
          <mxGeometry relative="1" as="geometry" />
        </mxCell>
        <UserObject label="&lt;p style=&quot;margin: 4px 0px 0px; text-align: center;&quot;&gt;&lt;b&gt;ML.NewSamplel() Method&lt;/b&gt;&lt;/p&gt;&lt;hr&gt;&lt;p style=&quot;margin: 0px; margin-left: 8px;&quot;&gt;Create new ID using NewId package&lt;/p&gt;&lt;p style=&quot;margin: 0px; margin-left: 8px;&quot;&gt;&lt;br&gt;&lt;/p&gt;&lt;p style=&quot;margin: 0px; margin-left: 8px;&quot;&gt;Set Signal Found and TradeResult to default&amp;nbsp;&lt;/p&gt;&lt;p style=&quot;margin: 0px; margin-left: 8px;&quot;&gt;&lt;br&gt;&lt;/p&gt;" tags="Methods" id="Nqc6m_4wT6IORtl7EpfO-345">
          <mxCell style="verticalAlign=top;align=left;overflow=fill;fontSize=12;fontFamily=Helvetica;html=1;strokeColor=#0e8088;shadow=1;fillColor=#b0e3e6;" vertex="1" parent="1">
            <mxGeometry x="1520" y="-3120" width="260" height="100" as="geometry" />
          </mxCell>
        </UserObject>
        <mxCell id="Nqc6m_4wT6IORtl7EpfO-353" style="edgeStyle=orthogonalEdgeStyle;rounded=0;orthogonalLoop=1;jettySize=auto;html=1;labelBorderColor=none;fontSize=16;entryX=0;entryY=0.5;entryDx=0;entryDy=0;strokeColor=#33FF33;strokeWidth=2;" edge="1" parent="1" source="Nqc6m_4wT6IORtl7EpfO-351" target="Nqc6m_4wT6IORtl7EpfO-263">
          <mxGeometry relative="1" as="geometry">
            <mxPoint x="1449.9999999999995" y="-3430" as="targetPoint" />
          </mxGeometry>
        </mxCell>
        <UserObject label="&lt;b&gt;END&amp;nbsp;&lt;/b&gt;" tags="EndBranch" id="Nqc6m_4wT6IORtl7EpfO-351">
          <mxCell style="ellipse;whiteSpace=wrap;html=1;aspect=fixed;fontSize=16;fillColor=#ffcccc;strokeColor=#36393d;" vertex="1" parent="1">
            <mxGeometry x="1182.5" y="-2720" width="100" height="100" as="geometry" />
          </mxCell>
        </UserObject>
        <mxCell id="Nqc6m_4wT6IORtl7EpfO-371" style="edgeStyle=orthogonalEdgeStyle;rounded=0;orthogonalLoop=1;jettySize=auto;html=1;exitX=0.5;exitY=1;exitDx=0;exitDy=0;entryX=0.5;entryY=0;entryDx=0;entryDy=0;labelBorderColor=none;fontSize=16;strokeColor=#000000;strokeWidth=1;" edge="1" parent="1" source="Nqc6m_4wT6IORtl7EpfO-356" target="Nqc6m_4wT6IORtl7EpfO-339">
          <mxGeometry relative="1" as="geometry" />
        </mxCell>
        <UserObject label="int &lt;br&gt;Signal.ID" tags="Variables" id="Nqc6m_4wT6IORtl7EpfO-356">
          <mxCell style="ellipse;shape=doubleEllipse;whiteSpace=wrap;html=1;fontSize=16;fillColor=#e1d5e7;strokeColor=#9673a6;" vertex="1" parent="1">
            <mxGeometry x="1470" y="-2980" width="120" height="70" as="geometry" />
          </mxCell>
        </UserObject>
        <mxCell id="Nqc6m_4wT6IORtl7EpfO-374" style="edgeStyle=orthogonalEdgeStyle;rounded=0;orthogonalLoop=1;jettySize=auto;html=1;exitX=0.5;exitY=1;exitDx=0;exitDy=0;labelBorderColor=none;fontSize=16;strokeColor=#000000;strokeWidth=1;" edge="1" parent="1" source="Nqc6m_4wT6IORtl7EpfO-358" target="Nqc6m_4wT6IORtl7EpfO-339">
          <mxGeometry relative="1" as="geometry">
            <Array as="points">
              <mxPoint x="1670" y="-2912" />
            </Array>
          </mxGeometry>
        </mxCell>
        <UserObject label="New Result Object" tags="Enums" id="Nqc6m_4wT6IORtl7EpfO-358">
          <mxCell style="rounded=1;whiteSpace=wrap;html=1;fontSize=16;fillColor=#D4E1F5;" vertex="1" parent="1">
            <mxGeometry x="1593" y="-2977.75" width="160" height="65.5" as="geometry" />
          </mxCell>
        </UserObject>
        <mxCell id="Nqc6m_4wT6IORtl7EpfO-376" value="&lt;p style=&quot;margin: 4px 0px 0px; text-align: center;&quot;&gt;&lt;strong style=&quot;&quot;&gt;Platform Result&lt;/strong&gt;&lt;/p&gt;&lt;hr&gt;&lt;p style=&quot;margin: 0px; margin-left: 8px;&quot;&gt;Template&lt;/p&gt;" style="verticalAlign=top;align=left;overflow=fill;fontSize=12;fontFamily=Helvetica;html=1;strokeColor=#003366;shadow=1;fillColor=#D4E1F5;fontColor=#003366" vertex="1" parent="1">
          <mxGeometry x="2660" y="-2790" width="145" height="120" as="geometry" />
        </mxCell>
        <mxCell id="Nqc6m_4wT6IORtl7EpfO-379" style="edgeStyle=orthogonalEdgeStyle;rounded=0;orthogonalLoop=1;jettySize=auto;html=1;labelBorderColor=none;fontSize=16;strokeColor=#26FF17;strokeWidth=2;entryX=0;entryY=0.5;entryDx=0;entryDy=0;" edge="1" parent="1" source="Nqc6m_4wT6IORtl7EpfO-377" target="Nqc6m_4wT6IORtl7EpfO-380">
          <mxGeometry relative="1" as="geometry">
            <mxPoint x="1950" y="-3120" as="targetPoint" />
            <Array as="points">
              <mxPoint x="1910" y="-2636" />
              <mxPoint x="1910" y="-3490" />
            </Array>
          </mxGeometry>
        </mxCell>
        <UserObject label="&lt;b&gt;END&amp;nbsp;&lt;/b&gt;" tags="EndBranch" id="Nqc6m_4wT6IORtl7EpfO-377">
          <mxCell style="ellipse;whiteSpace=wrap;html=1;aspect=fixed;fontSize=16;fillColor=#ffcccc;strokeColor=#36393d;" vertex="1" parent="1">
            <mxGeometry x="1619.37" y="-2686.25" width="100" height="100" as="geometry" />
          </mxCell>
        </UserObject>
        <mxCell id="Nqc6m_4wT6IORtl7EpfO-434" style="edgeStyle=orthogonalEdgeStyle;rounded=0;orthogonalLoop=1;jettySize=auto;html=1;exitX=0.5;exitY=1;exitDx=0;exitDy=0;entryX=0.5;entryY=0;entryDx=0;entryDy=0;labelBorderColor=none;fontSize=16;fontColor=#FF6666;strokeColor=#000000;strokeWidth=1;" edge="1" parent="1" source="Nqc6m_4wT6IORtl7EpfO-380" target="Nqc6m_4wT6IORtl7EpfO-415">
          <mxGeometry relative="1" as="geometry">
            <Array as="points">
              <mxPoint x="2094" y="-3435" />
            </Array>
          </mxGeometry>
        </mxCell>
        <UserObject label="&lt;b&gt;&lt;font style=&quot;font-size: 20px;&quot;&gt;New Prediction Result&lt;br&gt;&lt;/font&gt;&lt;/b&gt;" tags="EndBranch" id="Nqc6m_4wT6IORtl7EpfO-380">
          <mxCell style="ellipse;whiteSpace=wrap;html=1;fillColor=#f8cecc;strokeColor=#b85450;" vertex="1" parent="1">
            <mxGeometry x="2020" y="-3535" width="138.75" height="100" as="geometry" />
          </mxCell>
        </UserObject>
        <mxCell id="Nqc6m_4wT6IORtl7EpfO-446" style="edgeStyle=orthogonalEdgeStyle;rounded=0;orthogonalLoop=1;jettySize=auto;html=1;exitX=0.5;exitY=1;exitDx=0;exitDy=0;entryX=0.5;entryY=0;entryDx=0;entryDy=0;labelBorderColor=none;fontSize=16;fontColor=#FF6666;strokeColor=#000000;strokeWidth=1;" edge="1" parent="1" source="Nqc6m_4wT6IORtl7EpfO-382" target="Nqc6m_4wT6IORtl7EpfO-426">
          <mxGeometry relative="1" as="geometry" />
        </mxCell>
        <UserObject label="bool&lt;br&gt;SignalFound == false" tags="Variables" id="Nqc6m_4wT6IORtl7EpfO-382">
          <mxCell style="ellipse;shape=doubleEllipse;whiteSpace=wrap;html=1;fontSize=16;fillColor=#ffff88;strokeColor=#36393d;" vertex="1" parent="1">
            <mxGeometry x="2034.31" y="-2977.75" width="120" height="71" as="geometry" />
          </mxCell>
        </UserObject>
        <mxCell id="Nqc6m_4wT6IORtl7EpfO-449" style="edgeStyle=orthogonalEdgeStyle;rounded=0;orthogonalLoop=1;jettySize=auto;html=1;entryX=0.5;entryY=0;entryDx=0;entryDy=0;labelBorderColor=none;fontSize=16;fontColor=#FF6666;strokeColor=#000000;strokeWidth=1;" edge="1" parent="1" source="Nqc6m_4wT6IORtl7EpfO-389" target="Nqc6m_4wT6IORtl7EpfO-448">
          <mxGeometry relative="1" as="geometry" />
        </mxCell>
        <UserObject label="bool&lt;br&gt;SignalFound == True" tags="Variables" id="Nqc6m_4wT6IORtl7EpfO-389">
          <mxCell style="ellipse;shape=doubleEllipse;whiteSpace=wrap;html=1;fontSize=16;fillColor=#ffff88;strokeColor=#36393d;" vertex="1" parent="1">
            <mxGeometry x="2230" y="-2980" width="120" height="71" as="geometry" />
          </mxCell>
        </UserObject>
        <mxCell id="Nqc6m_4wT6IORtl7EpfO-396" value="" style="endArrow=none;dashed=1;html=1;dashPattern=1 3;strokeWidth=2;rounded=0;labelBorderColor=none;fontSize=16;entryX=0;entryY=0.5;entryDx=0;entryDy=0;exitX=1;exitY=0.5;exitDx=0;exitDy=0;" edge="1" parent="1" source="Nqc6m_4wT6IORtl7EpfO-382" target="Nqc6m_4wT6IORtl7EpfO-389">
          <mxGeometry width="50" height="50" relative="1" as="geometry">
            <mxPoint x="2050" y="-3180" as="sourcePoint" />
            <mxPoint x="2100" y="-3230" as="targetPoint" />
          </mxGeometry>
        </mxCell>
        <mxCell id="Nqc6m_4wT6IORtl7EpfO-447" style="edgeStyle=orthogonalEdgeStyle;rounded=0;orthogonalLoop=1;jettySize=auto;html=1;entryX=0.5;entryY=0;entryDx=0;entryDy=0;labelBorderColor=none;fontSize=16;fontColor=#FF6666;strokeColor=#000000;strokeWidth=1;" edge="1" parent="1" source="Nqc6m_4wT6IORtl7EpfO-402" target="Nqc6m_4wT6IORtl7EpfO-382">
          <mxGeometry relative="1" as="geometry" />
        </mxCell>
        <UserObject label="&lt;p style=&quot;margin: 4px 0px 0px; text-align: center;&quot;&gt;&lt;strong style=&quot;&quot;&gt;&quot;Example&quot; Result Object&lt;/strong&gt;&lt;/p&gt;&lt;hr&gt;&lt;p style=&quot;margin: 0px; margin-left: 8px;&quot;&gt;&lt;br&gt;&lt;/p&gt;&lt;p style=&quot;margin: 0px; margin-left: 8px;&quot;&gt;&lt;br&gt;&lt;/p&gt;&lt;p style=&quot;margin: 0px; margin-left: 8px;&quot;&gt;&lt;br&gt;&lt;/p&gt;" tags="Objects Classes" id="Nqc6m_4wT6IORtl7EpfO-402">
          <mxCell style="verticalAlign=top;align=left;overflow=fill;fontSize=12;fontFamily=Helvetica;html=1;strokeColor=#36393d;shadow=1;fillColor=#cdeb8b;" vertex="1" parent="1">
            <mxGeometry x="1975.81" y="-3170" width="237" height="120" as="geometry" />
          </mxCell>
        </UserObject>
        <mxCell id="Nqc6m_4wT6IORtl7EpfO-406" value="? WHO UPDATES WHO????" style="text;html=1;align=center;verticalAlign=middle;resizable=0;points=[];autosize=1;strokeColor=none;fillColor=none;fontSize=16;fontColor=#FF6666;fontStyle=1" vertex="1" parent="1">
          <mxGeometry x="1125" y="-3160" width="240" height="30" as="geometry" />
        </mxCell>
        <mxCell id="Nqc6m_4wT6IORtl7EpfO-425" style="edgeStyle=orthogonalEdgeStyle;rounded=0;orthogonalLoop=1;jettySize=auto;html=1;entryX=0.5;entryY=0;entryDx=0;entryDy=0;labelBorderColor=none;fontSize=16;fontColor=#FF6666;strokeColor=#000000;strokeWidth=1;" edge="1" parent="1" source="Nqc6m_4wT6IORtl7EpfO-410" target="Nqc6m_4wT6IORtl7EpfO-402">
          <mxGeometry relative="1" as="geometry" />
        </mxCell>
        <UserObject label="&lt;p style=&quot;margin: 4px 0px 0px; text-align: center;&quot;&gt;&lt;b&gt;NewResultl(Signal.ID, SignalFound) Method&lt;/b&gt;&lt;/p&gt;&lt;hr&gt;&lt;p style=&quot;margin: 0px; margin-left: 8px;&quot;&gt;&lt;span style=&quot;background-color: initial;&quot;&gt;Create New synthetic result object&lt;/span&gt;&lt;br&gt;&lt;/p&gt;&lt;p style=&quot;margin: 0px; margin-left: 8px;&quot;&gt;&lt;span style=&quot;background-color: initial;&quot;&gt;&lt;br&gt;&lt;/span&gt;&lt;/p&gt;&lt;p style=&quot;margin: 0px; margin-left: 8px;&quot;&gt;&lt;span style=&quot;background-color: initial;&quot;&gt;&lt;br&gt;&lt;/span&gt;&lt;/p&gt;&lt;p style=&quot;margin: 0px; margin-left: 8px;&quot;&gt;&lt;br&gt;&lt;/p&gt;" tags="Methods" id="Nqc6m_4wT6IORtl7EpfO-410">
          <mxCell style="verticalAlign=top;align=left;overflow=fill;fontSize=12;fontFamily=Helvetica;html=1;strokeColor=#0e8088;shadow=1;fillColor=#b0e3e6;" vertex="1" parent="1">
            <mxGeometry x="1964.31" y="-3290" width="260" height="60" as="geometry" />
          </mxCell>
        </UserObject>
        <mxCell id="Nqc6m_4wT6IORtl7EpfO-444" style="edgeStyle=orthogonalEdgeStyle;rounded=0;orthogonalLoop=1;jettySize=auto;html=1;labelBorderColor=none;fontSize=16;fontColor=#FF6666;strokeColor=#000000;strokeWidth=1;" edge="1" parent="1" source="Nqc6m_4wT6IORtl7EpfO-415" target="Nqc6m_4wT6IORtl7EpfO-410">
          <mxGeometry relative="1" as="geometry" />
        </mxCell>
        <UserObject label="&lt;p style=&quot;margin: 4px 0px 0px; text-align: center;&quot;&gt;&lt;strong style=&quot;&quot;&gt;Result: Signal Class&lt;/strong&gt;&lt;/p&gt;&lt;hr&gt;&lt;p style=&quot;margin: 0px 0px 0px 8px;&quot;&gt;Inherits from signal&lt;/p&gt;&lt;p style=&quot;margin: 0px 0px 0px 8px;&quot;&gt;&lt;br&gt;&lt;/p&gt;" tags="Objects Classes" id="Nqc6m_4wT6IORtl7EpfO-415">
          <mxCell style="verticalAlign=top;align=left;overflow=fill;fontSize=12;fontFamily=Helvetica;html=1;strokeColor=#d6b656;shadow=1;fillColor=#fff2cc;" vertex="1" parent="1">
            <mxGeometry x="1981.5" y="-3410" width="225.62" height="90" as="geometry" />
          </mxCell>
        </UserObject>
        <UserObject label="" tags="EndBranch" id="Nqc6m_4wT6IORtl7EpfO-430">
          <mxCell style="edgeStyle=orthogonalEdgeStyle;rounded=0;orthogonalLoop=1;jettySize=auto;html=1;exitX=0.5;exitY=1;exitDx=0;exitDy=0;entryX=0.5;entryY=0;entryDx=0;entryDy=0;labelBorderColor=none;fontSize=16;fontColor=#FF6666;strokeColor=#000000;strokeWidth=1;" edge="1" parent="1" source="Nqc6m_4wT6IORtl7EpfO-426" target="Nqc6m_4wT6IORtl7EpfO-429">
            <mxGeometry relative="1" as="geometry" />
          </mxCell>
        </UserObject>
        <UserObject label="&lt;p style=&quot;margin: 4px 0px 0px; text-align: center;&quot;&gt;&lt;b&gt;RunSyntheticResultEngine()&lt;/b&gt;&lt;/p&gt;&lt;hr&gt;&lt;p style=&quot;margin: 0px; margin-left: 8px;&quot;&gt;Runs the Synthetic Trade Engine to Label&amp;nbsp;&lt;/p&gt;&lt;p style=&quot;margin: 0px; margin-left: 8px;&quot;&gt;SignalFound == false&amp;nbsp;&lt;/p&gt;&lt;p style=&quot;margin: 0px; margin-left: 8px;&quot;&gt;trades.&lt;/p&gt;&lt;p style=&quot;margin: 0px; margin-left: 8px;&quot;&gt;&lt;br&gt;&lt;/p&gt;" tags="Methods" id="Nqc6m_4wT6IORtl7EpfO-426">
          <mxCell style="verticalAlign=top;align=left;overflow=fill;fontSize=12;fontFamily=Helvetica;html=1;strokeColor=#0e8088;shadow=1;fillColor=#b0e3e6;" vertex="1" parent="1">
            <mxGeometry x="1964.31" y="-2880" width="260" height="90" as="geometry" />
          </mxCell>
        </UserObject>
        <UserObject label="&lt;b&gt;&lt;font style=&quot;font-size: 20px;&quot;&gt;Synthetic Result Engine&lt;br&gt;&lt;/font&gt;&lt;/b&gt;" tags="EndBranch" id="Nqc6m_4wT6IORtl7EpfO-429">
          <mxCell style="ellipse;whiteSpace=wrap;html=1;fillColor=#f8cecc;strokeColor=#b85450;" vertex="1" parent="1">
            <mxGeometry x="2024.9399999999998" y="-2766.25" width="138.75" height="100" as="geometry" />
          </mxCell>
        </UserObject>
        <mxCell id="Nqc6m_4wT6IORtl7EpfO-445" value="" style="endArrow=none;dashed=1;html=1;dashPattern=1 3;strokeWidth=2;rounded=0;labelBorderColor=none;fontSize=16;fontColor=#FF6666;entryX=1;entryY=0.5;entryDx=0;entryDy=0;exitX=0;exitY=0.5;exitDx=0;exitDy=0;" edge="1" parent="1" source="Nqc6m_4wT6IORtl7EpfO-382" target="Nqc6m_4wT6IORtl7EpfO-341">
          <mxGeometry width="50" height="50" relative="1" as="geometry">
            <mxPoint x="2080" y="-2930" as="sourcePoint" />
            <mxPoint x="2130" y="-2980" as="targetPoint" />
          </mxGeometry>
        </mxCell>
        <mxCell id="Nqc6m_4wT6IORtl7EpfO-451" style="edgeStyle=orthogonalEdgeStyle;rounded=0;orthogonalLoop=1;jettySize=auto;html=1;exitX=0.5;exitY=1;exitDx=0;exitDy=0;labelBorderColor=none;fontSize=16;fontColor=#FF6666;strokeColor=#000000;strokeWidth=1;" edge="1" parent="1" source="Nqc6m_4wT6IORtl7EpfO-448" target="Nqc6m_4wT6IORtl7EpfO-450">
          <mxGeometry relative="1" as="geometry" />
        </mxCell>
        <UserObject label="&lt;p style=&quot;margin: 4px 0px 0px; text-align: center;&quot;&gt;&lt;b&gt;RunGenuineResultEngine()&lt;/b&gt;&lt;/p&gt;&lt;hr&gt;&lt;p style=&quot;margin: 0px; margin-left: 8px;&quot;&gt;Runs the Synthetic Trade Engine to Label&amp;nbsp;&lt;/p&gt;&lt;p style=&quot;margin: 0px; margin-left: 8px;&quot;&gt;SignalFound == false&amp;nbsp;&lt;/p&gt;&lt;p style=&quot;margin: 0px; margin-left: 8px;&quot;&gt;trades.&lt;/p&gt;&lt;p style=&quot;margin: 0px; margin-left: 8px;&quot;&gt;&lt;br&gt;&lt;/p&gt;" tags="Methods" id="Nqc6m_4wT6IORtl7EpfO-448">
          <mxCell style="verticalAlign=top;align=left;overflow=fill;fontSize=12;fontFamily=Helvetica;html=1;strokeColor=#0e8088;shadow=1;fillColor=#b0e3e6;" vertex="1" parent="1">
            <mxGeometry x="2338" y="-3480" width="260" height="90" as="geometry" />
          </mxCell>
        </UserObject>
        <UserObject label="&lt;b&gt;&lt;font style=&quot;font-size: 20px;&quot;&gt;Genuine Result Engine&lt;br&gt;&lt;/font&gt;&lt;/b&gt;" tags="EndBranch" id="Nqc6m_4wT6IORtl7EpfO-450">
          <mxCell style="ellipse;whiteSpace=wrap;html=1;fillColor=#f8cecc;strokeColor=#b85450;" vertex="1" parent="1">
            <mxGeometry x="2398.63" y="-3350" width="138.75" height="100" as="geometry" />
          </mxCell>
        </UserObject>
      </root>
    </mxGraphModel>
  </diagram>
</mxfile>
